<svg width="214" height="31" viewBox="0 0 214 31" fill="none" xmlns="http://www.w3.org/2000/svg">
<path d="M26.4315 14.3425L49.9492 3.20801L52.967 6.22578L34.7563 26.1014L26.4315 17.8806L18.2107 26.1014L0 6.22578L3.01777 3.20801L26.4315 14.3425Z" fill="#F51B1B"/>
<path d="M89.56 22V9H93.07V10.352C95.02 9.26 96.84 8.74 98.4 8.74C98.946 8.74 99.492 8.844 100.09 9V12.198C99.752 12.094 99.18 11.99 98.582 11.99C96.814 11.99 95.28 12.51 93.2 13.68V22H89.56ZM114.655 18.022V21.272C113.017 21.896 111.015 22.26 108.675 22.26C103.293 22.26 100.225 19.764 100.225 15.5C100.225 11.314 103.189 8.74 107.973 8.74C112.783 8.74 115.695 11.34 115.695 15.344C115.695 15.864 115.643 16.306 115.565 16.722H104.047C104.567 18.386 106.101 19.14 109.065 19.14C110.885 19.14 112.835 18.802 114.655 18.022ZM104.021 13.992H111.873C111.405 12.406 110.105 11.6 107.947 11.6C105.789 11.6 104.463 12.406 104.021 13.992ZM129.6 22V19.53H129.47C128.43 21.428 126.74 22.26 124.01 22.26C120.11 22.26 117.25 19.66 117.25 15.76C117.25 11.6 119.46 8.74 124.4 8.74C125.96 8.74 127.52 9.078 129.47 9.78V4.06H133.11V22H129.6ZM129.47 14.98V13.16C128.17 12.484 126.61 11.99 125.05 11.99C122.294 11.99 121.02 13.134 121.02 15.5C121.02 17.632 122.008 19.01 125.128 19.01C127.884 19.01 129.47 17.528 129.47 14.98ZM154.816 17.97V21.35C153.386 21.948 151.306 22.26 149.226 22.26C144.156 22.26 141.296 19.53 141.296 15.5C141.296 11.47 144.156 8.74 149.226 8.74C151.306 8.74 153.386 9.052 154.816 9.65V13.03C152.996 12.25 151.176 11.99 149.59 11.99C146.47 11.99 145.066 13.29 145.066 15.5C145.066 17.71 146.47 19.01 149.59 19.01C151.176 19.01 152.996 18.75 154.816 17.97ZM156.366 15.5C156.366 11.34 159.356 8.74 164.296 8.74C169.236 8.74 172.226 11.34 172.226 15.5C172.226 19.66 169.236 22.26 164.296 22.26C159.356 22.26 156.366 19.66 156.366 15.5ZM160.136 15.5C160.136 17.84 161.566 19.01 164.296 19.01C167.026 19.01 168.456 17.84 168.456 15.5C168.456 13.16 167.026 11.99 164.296 11.99C161.566 11.99 160.136 13.16 160.136 15.5ZM174.447 22V4.06H178.087V22H174.447ZM180.935 22V4.06H184.575V22H180.935ZM188.021 13.108V9.728C190.465 9.052 192.987 8.74 194.703 8.74C198.603 8.74 200.813 10.69 200.813 14.2V22H197.303V19.4H197.173C196.445 21.272 195.145 22.26 192.233 22.26C188.593 22.26 186.643 20.7 186.643 18.074C186.643 15.448 188.515 13.992 192.077 13.758L197.303 13.42C196.913 12.354 195.821 11.86 193.819 11.86C192.103 11.86 190.517 12.198 188.021 13.108ZM197.277 16.098L192.337 16.41C190.959 16.488 190.283 16.956 190.283 17.84C190.283 18.75 191.037 19.218 192.779 19.218C195.561 19.218 197.173 18.1 197.277 16.098ZM203.276 22V9H206.786V10.352C208.736 9.26 210.556 8.74 212.116 8.74C212.662 8.74 213.208 8.844 213.806 9V12.198C213.468 12.094 212.896 11.99 212.298 11.99C210.53 11.99 208.996 12.51 206.916 13.68V22H203.276Z" fill="black"/>
</svg>
